<?xml version="1.0" encoding="UTF-8" standalone="no"?>
<svg
   xmlns:dc="http://purl.org/dc/elements/1.1/"
   xmlns:cc="http://creativecommons.org/ns#"
   xmlns:rdf="http://www.w3.org/1999/02/22-rdf-syntax-ns#"
   xmlns:svg="http://www.w3.org/2000/svg"
   xmlns="http://www.w3.org/2000/svg"
   xmlns:sodipodi="http://sodipodi.sourceforge.net/DTD/sodipodi-0.dtd"
   xmlns:inkscape="http://www.inkscape.org/namespaces/inkscape"
   width="373.22946"
   height="284.06516"
   viewBox="0 0 373.22946 284.06516"
   data-svgdocument=""
   id="_coFzKRGqBYMIJBnZ_CCwX"
   class="fl-svgdocument"
   x="0"
   y="0"
   style="overflow:hidden"
   version="1.1"
   sodipodi:docname="logo-nobackground-resized-cropped.svg"
   inkscape:version="0.92.5 (2060ec1f9f, 2020-04-08)">
  <metadata
     id="metadata13">
    <rdf:RDF>
      <cc:Work
         rdf:about="">
        <dc:format>image/svg+xml</dc:format>
        <dc:type
           rdf:resource="http://purl.org/dc/dcmitype/StillImage" />
        <dc:title></dc:title>
      </cc:Work>
    </rdf:RDF>
  </metadata>
  <sodipodi:namedview
     pagecolor="#ffffff"
     bordercolor="#666666"
     borderopacity="1"
     objecttolerance="10"
     gridtolerance="10"
     guidetolerance="10"
     inkscape:pageopacity="0"
     inkscape:pageshadow="2"
     inkscape:window-width="1920"
     inkscape:window-height="1018"
     id="namedview11"
     showgrid="false"
     inkscape:zoom="1.3037281"
     inkscape:cx="86.289745"
     inkscape:cy="115.84127"
     inkscape:window-x="0"
     inkscape:window-y="28"
     inkscape:window-maximized="1"
     inkscape:current-layer="_coFzKRGqBYMIJBnZ_CCwX" />
  <defs
     id="_y2W6K0kFSVbPfTpNSaNNa"
     transform="matrix(1.0722101926803589, 0, 0, 1.0722101926803589, -17.92560577392578, -23.506441116333008)" />
  <path
     text="```md"
     font-size="100"
     letter-spacing="0"
     side="left"
     offset="0"
     dx="0"
     dy="0"
     space="preserve"
     href=""
     font-scale="contain"
     x="0"
     y="0"
     font-weight="400"
     data-fl-textpath=""
     id="_8aQbwXwIqHgRNT3mfYdpv"
     font-style="normal"
     d="m 44.580515,78.242976 v 0 l -19.616798,-2.70705 q -1.067964,-0.12591 -1.545737,-0.59807 -0.477773,-0.47215 -0.477773,-1.66829 v 0 -6.04364 q 0,-1.07023 0.477773,-1.63682 0.477773,-0.56659 1.433319,-0.44068 v 0 l 19.616806,2.70705 q 1.06796,0.12591 1.54573,0.59806 0.47778,0.47216 0.47778,1.6683 v 0 6.04364 q 0,1.07023 -0.47778,1.63682 -0.47777,0.56659 -1.43332,0.44068 z m 28.10431,0 v 0 l -19.61681,-2.70705 q -1.06796,-0.12591 -1.54573,-0.59807 -0.47778,-0.47215 -0.47778,-1.66829 v 0 -6.04364 q 0,-1.07023 0.47778,-1.63682 0.47777,-0.56659 1.43332,-0.44068 v 0 l 19.6168,2.70705 q 1.06796,0.12591 1.54574,0.59806 0.47777,0.47216 0.47777,1.6683 v 0 6.04364 q 0,1.07023 -0.47777,1.63682 -0.47778,0.56659 -1.43332,0.44068 z m 28.104295,0 v 0 l -19.616795,-2.70705 q -1.06797,-0.12591 -1.54574,-0.59807 -0.47777,-0.47215 -0.47777,-1.66829 v 0 -6.04364 q 0,-1.07023 0.47777,-1.63682 0.47777,-0.56659 1.43332,-0.44068 v 0 l 19.616795,2.70705 q 1.06797,0.12591 1.54574,0.59806 0.47777,0.47216 0.47777,1.6683 v 0 6.04364 q 0,1.07023 -0.47777,1.63682 -0.47777,0.56659 -1.43332,0.44068 z m 18.49263,47.404784 v 0 h -8.37508 q -1.06797,0 -1.54574,-0.53511 -0.47777,-0.53511 -0.47777,-1.73125 v 0 -40.794564 q 0,-1.19613 0.47777,-1.73125 0.47777,-0.53511 1.54574,-0.53511 v 0 h 9.04958 q 0.89934,0 1.48953,0.44068 0.59019,0.44068 1.09607,1.44796 v 0 l 5.05877,10.26159 q 0.28105,0.56659 0.47778,0.81841 0.19673,0.25182 0.53398,0.25182 v 0 h 0.50588 q 0.33725,0 0.53398,-0.25182 0.19673,-0.25182 0.47777,-0.81841 v 0 l 5.00257,-10.26159 q 0.50587,-1.00728 1.09606,-1.44796 0.59019,-0.44068 1.48953,-0.44068 v 0 h 9.1058 q 1.06796,0 1.54573,0.53511 0.47778,0.53512 0.47778,1.73125 v 0 40.794564 q 0,1.19614 -0.47778,1.73125 -0.47777,0.53511 -1.54573,0.53511 v 0 h -8.65613 q -1.06796,0 -1.54574,-0.53511 -0.47777,-0.53511 -0.47777,-1.73125 v 0 -22.16001 l -3.31631,6.86205 q -0.50587,1.07023 -1.20848,1.54239 -0.70261,0.47216 -1.77057,0.47216 v 0 h -2.24835 q -1.06796,0 -1.77057,-0.47216 -0.70261,-0.47216 -1.20848,-1.54239 v 0 l -3.31631,-6.86205 v 22.16001 q 0,1.19614 -0.47777,1.73125 -0.47778,0.53511 -1.54574,0.53511 z m 58.28832,0 v 0 h -18.9423 q -1.06796,0 -1.54573,-0.53511 -0.47778,-0.53511 -0.47778,-1.73125 v 0 -40.794564 q 0,-1.19613 0.47778,-1.73125 0.47777,-0.53511 1.54573,-0.53511 v 0 h 18.9423 q 7.02608,0 10.4267,3.14773 3.40062,3.14773 3.40062,9.695 v 0 19.641824 q 0,6.54728 -3.40062,9.69501 -3.40062,3.14772 -10.4267,3.14772 z m -1.51763,-33.302964 h -6.68882 v 21.404554 h 6.68882 q 1.34901,0 1.99541,-0.75545 0.6464,-0.75546 0.6464,-2.32932 v 0 -15.297964 q 0,-1.57386 -0.6464,-2.29784 -0.6464,-0.72398 -1.99541,-0.72398 z"
     inkscape:connector-curvature="0"
     style="font-style:normal;font-weight:400;font-size:100px;font-family:Bungee;letter-spacing:0;text-anchor:start;fill:#1c55ff;stroke-width:0.59486032" />
  <path
     text="   format"
     font-size="100"
     letter-spacing="0"
     side="left"
     offset="0"
     dx="0"
     dy="0"
     space="preserve"
     href=""
     font-scale="contain"
     x="0"
     y="0"
     font-weight="400"
     data-fl-textpath=""
     id="_IpHy63JIL9PEnI5NaR21t"
     font-style="normal"
     d="m 79.120705,172.40183 v 0 l -0.21921,6.27027 q 0,1.69348 0.72509,4.99859 0.73071,3.30512 0.73071,4.88528 0,1.58645 0.46653,4.44459 0.46653,2.85813 0.46653,4.59568 0,1.73755 -1.33214,1.73755 -1.33214,0 -1.33214,-1.70607 0,-1.70607 0.48339,-4.55162 0.47777,-2.84554 0.47777,-4.25573 0,-1.41647 -0.87685,-2.56854 -0.87686,-1.15207 -2.08534,-1.15207 v 0 q -2.7486,0 -2.7486,7.47271 v 0 q 0,1.75013 0.41594,5.25041 0.41032,3.50657 0.41032,4.79713 v 0 q 0,2.52448 -1.34338,2.52448 v 0 q -0.68575,0 -1.05672,-0.66102 -0.37098,-0.66102 -0.37098,-1.89493 0,-1.22762 0.47777,-4.48866 0.4834,-3.25475 0.4834,-4.73419 0,-1.47313 -0.15177,-2.77629 -0.15176,-1.30946 -0.55084,-2.80148 -0.39908,-1.49202 -1.25907,-2.41116 -0.86562,-0.92543 -2.22586,-0.92543 -1.36025,0 -2.44508,1.32204 -1.0792,1.32205 -1.0792,2.5056 0,1.18354 0.38222,2.47411 0.38221,1.29686 0.38221,2.00195 v 0 q 0,1.35353 -0.88809,1.35353 -0.89372,0 -0.89372,-1.35353 v 0 l 0.65764,-4.91675 -0.0281,-39.13255 q 0,-3.62618 -1.97292,-6.05623 v 0 l 0.54522,-0.61696 q 2.19776,2.18453 5.40727,2.18453 v 0 h 31.673545 q 3.20951,0 5.40726,-2.18453 v 0 l 0.55085,0.61696 q -1.95044,2.45523 -1.95044,5.53371 0,3.07218 0.35411,4.76566 0.35974,1.68718 1.59633,3.25475 v 0 l -0.55085,0.61695 q -1.4558,-2.18452 -3.62545,-2.18452 v 0 H 81.397155 q -1.5345,0 -2.63056,-1.16466 v 0 l -0.52274,0.57918 q 1.03986,1.23391 1.03986,2.98405 0,1.75013 -1.03986,2.98404 v 0 l 0.52274,0.57918 q 0.90496,-0.98209 2.18089,-1.25909 1.27594,-0.277 3.02964,-0.277 v 0 l 10.43232,0.64844 q 2.55187,0 4.51355,-0.49105 1.961675,-0.49105 3.361275,-2.00196 v 0 l 0.55084,0.61696 q -2.05723,2.51818 -2.05723,6.97536 0,4.45719 1.89423,6.67319 v 0 l -0.57895,0.61695 q -2.495655,-2.493 -8.071555,-2.493 v 0 l -10.26369,0.64843 q -3.76035,0 -5.13184,-1.54238 v 0 l -0.52274,0.61695 q 1.01737,1.17096 1.01737,3.07219 z m 57.007685,17.67764 v 0 l 0.19111,-2.95257 q 0,-0.76805 -0.65764,-1.18355 -0.66326,-0.4155 -1.4277,-0.4155 -0.77006,0 -1.37711,0.46586 -0.60143,0.45957 -0.60143,1.32205 v 0 7.0698 q 0,1.53609 0.57895,4.51384 0.57332,2.98405 0.57332,4.26202 0,1.27169 -0.49463,2.10269 -0.49464,0.831 -1.35463,0.831 -0.86561,0 -1.30404,-0.86248 -0.44405,-0.85618 -0.44405,-2.24118 0,-1.385 0.63516,-4.79714 0.62954,-3.41214 0.62954,-5.28818 v 0 q 0,-7.59232 -2.52377,-7.59232 v 0 q -3.40624,0 -3.40624,-0.30848 v 0 0.063 q 0,2.12157 0.83751,6.22621 0.83751,4.10464 0.83751,5.88625 0,1.78161 -0.57333,2.93368 -0.57895,1.15207 -1.77057,1.15207 -1.19725,0 -1.86613,-1.1017 -0.6745,-1.108 -0.6745,-2.87703 0,-1.76902 0.79816,-6.05623 0.79254,-4.2872 0.79254,-6.5032 v 0 q -6.50333,-2.30414 -9.7803,-7.52937 -3.28258,-5.22523 -3.28258,-12.91198 v 0 q 0,-15.92121 14.32757,-20.10139 v 0 q 4.63721,-1.35352 9.58919,-1.35352 4.9576,0 8.42567,0.61695 3.47369,0.61066 6.72817,2.16564 3.24886,1.55498 5.54217,3.93466 2.29331,2.37968 3.6648,6.15066 1.37149,3.76468 1.37149,8.587 v 0 q 0,9.8398 -4.94073,15.23501 -4.94074,5.3952 -13.88915,6.62282 v 0 q -0.1068,0.21404 -0.1068,0.67361 v 0 l 0.1349,1.69348 q 0,1.56757 -0.76443,1.56757 -0.77006,0 -0.77006,-1.50462 v 0 l 0.0843,-1.72495 q 0,-0.91914 -1.18038,-0.91914 v 0 q -0.11242,0.277 -0.11242,1.04505 v 0 l 0.14053,2.97775 q 0,0.92543 -0.30353,1.78791 -0.30353,0.85618 -1.01738,0.85618 v 0 q -1.25907,0 -1.25907,-2.51818 z m -10.37611,-25.76101 v 0 q 0,11.24998 9.54984,11.24998 9.54985,0 9.54985,-11.24998 v 0 q 0,-5.16227 -2.46756,-7.9008 -2.47318,-2.73223 -7.08229,-2.73223 -4.6091,0 -7.08228,2.73223 -2.46756,2.73853 -2.46756,7.9008 z m 85.65779,30.86662 v 0 l 0.60143,-6.36471 q 0,-3.8717 -2.81043,-5.91772 -2.81605,-2.04603 -5.91315,-1.8131 -3.10271,0.22664 -4.3393,2.34821 v 0 q -0.62954,1.01357 -0.62954,2.39857 v 0 l -0.14052,8.24075 q 0,1.68718 0.46653,5.02377 0.46653,3.3366 0.46653,5.02378 v 0 q 0,2.98404 -1.50639,2.98404 -1.51201,0 -1.51201,-2.88961 v 0 q 0,-1.90752 0.49464,-5.47075 0.49463,-3.56323 0.56208,-5.4078 0.0674,-1.84457 0.0674,-7.86932 v 0 q 0,-1.59904 -0.87685,-3.68914 -0.87685,-2.09009 -2.77108,-5.74775 -1.89423,-3.65766 -3.10272,-6.45913 v 0 l -0.82064,-0.52253 q -0.65765,1.35353 -2.33266,1.35353 v 0 l -2.30455,0.0944 q -2.36077,0 -3.54115,-1.29057 v 0 l -0.57895,0.61066 q 0.0843,1.13948 0.0843,4.86009 v 0 l -0.0281,7.52937 q 0,3.38066 0.1068,4.9797 v 0 l 0.52274,4.52014 q 0,1.25909 -0.77006,1.25909 -0.76443,0 -0.76443,-1.17095 v 0 l 0.43842,-3.80876 q 0,-1.385 -0.73071,-2.19711 -0.72509,-0.81841 -1.88861,-0.81841 -1.16914,0 -2.06285,1.15837 -0.8881,1.15206 -0.8881,2.99663 0,1.84457 0.60143,4.9923 0.60705,3.15402 0.60705,4.53273 v 0 q 0,2.88961 -1.84364,2.88961 -1.83802,0 -1.83802,-2.82666 v 0 q 0,-1.32204 0.53398,-4.60827 0.53961,-3.29253 0.53961,-5.22523 0,-1.939 -0.79817,-3.1855 -0.79816,-1.2465 -1.80991,-1.2465 -1.01738,0 -1.73123,0.78693 -0.71385,0.78064 -0.71385,1.95159 v 0 l 0.74196,7.28384 q 0,1.87605 -1.23659,1.87605 -1.23097,0 -1.23097,-1.90752 v 0 q 0,-1.10171 0.51712,-3.85282 0.52274,-2.75112 0.49463,-4.2935 -0.0281,-1.53609 -0.0281,-39.7747 v 0 q 0,-1.90752 -1.03986,-3.0407 v 0 l 0.54522,-0.61696 q 1.07359,1.17096 2.7205,1.17096 v 0 h 24.59126 q 5.76139,0 7.75117,0.38402 1.98978,0.38403 3.48493,0.81212 1.50077,0.42809 2.52939,1.05763 1.02862,0.63584 2.08534,1.56757 1.05672,0.93802 1.68626,2.14046 v 0 q 1.4558,2.73222 1.4558,5.8107 0,3.07219 -0.42718,5.02378 -0.42719,1.95159 -1.41084,3.67654 v 0 q -2.14155,3.71432 -7.52071,3.71432 v 0 l -0.21922,0.71139 q 1.72561,0.76804 2.30456,2.12157 v 0 q 2.41697,5.89884 3.56924,7.48529 1.15228,1.58016 2.13593,2.53078 0.98927,0.95691 2.82729,1.939 1.84365,0.98209 2.22586,1.27798 0.38222,0.28959 0.38222,0.47216 v 0 q 0,3.07847 0.74196,7.90079 0.74195,4.82862 0.74195,6.21362 0,1.3787 -0.0956,1.99566 -0.0956,0.61695 -0.42719,1.21502 -0.32601,0.59807 -0.96117,0.59807 -0.62953,0 -0.9443,-1.01357 -0.31477,-1.01357 -0.31477,-2.493 0,-1.47314 0.35411,-5.2693 0.35974,-3.79616 0.35974,-5.73516 v 0 q 0,-3.84023 -2.22586,-3.84023 v 0 q -1.09607,0 -1.63005,0.4281 -0.5396,0.43438 -0.5396,1.76902 0,1.33464 0.49463,4.25573 0.49464,2.92109 0.49464,4.41311 0,1.49202 -1.01738,1.49202 -1.01175,0 -1.01175,-1.50461 z m -18.27904,-40.94565 v 0 l -6.47523,0.21405 q -3.97957,0 -5.18806,-1.32205 v 0 l -0.57895,0.58548 q 1.09607,1.19614 1.09607,3.07218 v 0 2.05862 q 0,1.84457 -1.09607,3.07218 v 0 l 0.57895,0.61696 q 1.18038,-1.35353 4.88453,-1.35353 v 0 l 6.94176,0.277 q 2.77109,0 4.29434,-0.81211 1.52325,-0.81841 1.52325,-2.99664 v 0 q 0,-1.385 -0.84875,-2.17193 -0.84875,-0.78064 -2.05723,-1.01357 -1.20849,-0.22664 -3.07461,-0.22664 z m 31.03778,36.45699 v 0 l 0.16862,-4.27461 v -39.7747 q 0,-1.90752 -1.07358,-3.07847 v 0 l 0.55084,-0.64214 q 1.15228,1.22761 2.74298,1.22761 v 0 h 17.59329 q 1.67502,0 2.47318,-1.32204 v 0 l 0.71385,0.58547 q -0.49463,0.7051 -0.49463,2.02714 0,1.32205 0.87685,3.92207 0.87686,2.59373 1.92234,4.92934 v 0 q 2.82729,6.27657 2.82729,10.21123 v 0 h 0.38222 q 0,-4.09204 2.79919,-10.23641 v 0 q 2.79918,-6.0877 2.79918,-9.16618 v 0 q 0,-0.91914 -0.52274,-1.68719 v 0 l 0.74196,-0.58547 q 0.79816,1.32204 2.47318,1.32204 v 0 h 17.58767 q 1.64691,0 2.7486,-1.22761 v 0 l 0.54522,0.64214 q -1.06796,1.20243 -1.06796,3.07847 v 0 35.95965 q 0,2.24748 -0.0281,3.07848 v 0 l -0.55084,0.61066 q -0.54522,-1.19614 -1.64691,-1.19614 v 0 h -9.19011 q -1.37149,0 -1.37149,6.36471 v 0 q 0,1.108 0.39346,3.24216 0.39908,2.13416 0.39908,3.14772 0,1.01987 -0.34287,1.54239 -0.34287,0.52252 -0.83751,0.52252 -0.49463,0 -0.86561,-0.54141 -0.37098,-0.53511 -0.37098,-1.49202 0,-0.95061 0.3485,-3.05959 0.34287,-2.10268 0.34287,-3.08477 v 0 l 0.0787,-9.13471 v -23.82201 q 0,-1.9327 0.27542,-3.68913 v 0 l -0.19111,-0.0315 q -0.55084,3.01552 -2.9116,9.44318 -2.36076,6.42137 -4.36179,12.07469 -2.00665,5.65961 -2.00665,7.6238 v 0 l 0.11242,6.98166 q 0.0281,1.84456 0.65764,5.54629 0.62954,3.70803 0.62954,5.31966 0,1.61164 -0.46653,2.39857 -0.46654,0.78064 -1.05673,0.78064 -0.58457,0 -0.98365,-0.72398 -0.39908,-0.71768 -0.39908,-2.41116 0,-1.68718 0.38222,-5.56518 0.38784,-3.87171 0.38784,-5.60925 0,-1.73755 -0.16863,-2.88962 -0.163,-1.15207 -0.39346,-1.90122 -0.23607,-0.75546 -0.6745,-1.29687 -0.43843,-0.53511 -0.82627,-0.81211 -0.38221,-0.277 -0.98365,-0.42809 v 0 q -3.13082,-0.79953 -5.21615,0.73656 v 0 q -1.2928,0.95062 -1.2928,2.3671 v 0 l 0.33163,3.34918 q 0,1.13948 -0.74196,1.13948 -0.74195,0 -0.74195,-1.23391 v 0 l 0.46653,-5.74775 q 0,-2.05862 -2.01789,-7.63639 -2.01226,-5.57778 -4.37303,-11.94248 -2.36076,-6.36471 -2.8835,-9.5628 v 0 l -0.163,0.0315 q 0.2698,1.75643 0.2698,3.68913 v 0 30.37558 q 0,0.52252 0.42718,4.14871 0.42719,3.62618 0.42719,5.13079 0,1.50462 -0.56209,2.32303 -0.56208,0.81211 -1.30404,0.81211 -0.74195,0 -1.27593,-0.76805 -0.53398,-0.76804 -0.53398,-2.10268 0,-1.34093 0.42156,-4.7027 0.42719,-3.36807 0.42719,-4.65864 v 0 l 0.0281,-0.89396 q 0,-0.79952 -0.35973,-1.16466 v 0 q -0.71385,-0.76804 -5.53093,-0.76804 -4.81146,0 -4.81146,0.0567 v 0 l 0.0787,4.06057 q 0,0.70509 -0.6183,0.70509 -0.61829,0 -0.61829,-0.64214 z m 63.70643,-3.62618 v 0 l 0.0787,4.88527 q 0,1.47314 -0.41032,2.22859 -0.41032,0.75546 -0.98927,0.75546 v 0 q -1.15228,0 -1.15228,-2.493 0,-2.493 0.55085,-5.51482 0.54522,-3.02812 0.96117,-4.16759 v 0 l 13.16967,-36.3059 q 0.27542,-0.79952 0.27542,-1.56757 0,-0.76804 -0.46653,-1.50461 v 0 l 0.77006,-0.554 q 0.79816,1.32204 2.46756,1.32204 v 0 h 12.62445 q 1.64691,0 2.44508,-1.32204 v 0 l 0.79816,0.554 q -0.46653,0.73657 -0.46653,1.41648 0,0.67361 0.32601,1.62422 v 0 l 13.55751,36.36885 q 0.63516,1.71866 1.95044,2.70075 v 0 l -0.33163,0.58548 q -1.34339,-0.98209 -2.9903,-0.98209 v 0 h -5.37916 q 0.0562,0.67361 0.0562,0.95061 v 0 q 0,1.01987 -0.74196,1.01987 v 0 q -0.33163,0 -0.59019,-0.29589 -0.25856,-0.28959 -0.25856,-0.831 0,-0.53511 0.0506,-0.84359 v 0 h -3.31631 q -1.20848,0 -1.56822,1.47314 v 0 q -0.43842,1.81309 -0.43842,4.16759 0,2.3545 0.27542,4.2872 0.27542,1.93901 0.27542,2.66298 0,0.71768 -0.31477,1.16466 -0.31477,0.44698 -0.7813,0.44698 -0.46653,0 -0.79816,-0.42809 -0.33163,-0.43439 -0.33163,-1.20243 0,-0.76805 0.34287,-2.98405 0.34287,-2.20971 0.34287,-3.31771 v 0 -8.63736 q -0.2698,-0.831 -0.2698,-1.53609 0,-0.70509 0.48902,-1.50462 v 0 l -0.70823,-0.58547 q -0.82627,1.32204 -2.47318,1.32204 v 0 H 303.6249 q -1.64691,0 -2.46755,-1.29057 v 0 l -0.71385,0.554 q 0.52274,0.82471 0.52274,1.53609 0,0.7051 -0.19673,1.50462 v 0 0.0315 q -0.24732,1.04504 -0.24732,1.59904 0,0.554 0.55084,1.44166 v 0 l -0.71385,0.58548 q -0.82064,-1.29057 -2.46755,-1.29057 v 0 h -9.93769 q -0.0787,0.58548 -0.0787,1.97048 z m 18.57695,-15.15946 v 0 h 5.24426 q 1.64691,0 2.96219,0.98839 v 0 l 0.35974,-0.58548 q -1.2928,-0.98839 -1.86613,-2.73852 v 0 l -3.49055,-9.99089 q -0.60143,-1.75014 -0.62954,-3.56323 v 0 h -0.35411 q -0.0562,2.02714 -0.55085,3.56323 v 0 l -3.1533,9.95941 q -0.57895,1.78161 -1.84364,2.77 v 0 l 0.35973,0.61066 q 1.28718,-1.01357 2.9622,-1.01357 z m 17.8125,23.36244 v 0 q 0,-2.12157 0.71385,-5.31966 v 0 q 0.79816,3.68913 0.79816,4.79713 v 0 q 0,1.63053 -0.75881,1.63053 -0.7532,0 -0.7532,-1.108 z m 7.40975,-43.15535 v 0 l 0.14052,-3.93466 q 0,-3.38066 -1.18038,-4.67123 v 0 l 0.54522,-0.61696 q 1.10169,1.19614 2.7205,1.19614 v 0 h 36.03533 q 1.67502,0 2.74298,-1.19614 v 0 l 0.55085,0.61696 q -1.04548,1.16466 -1.04548,3.07218 v 0 l -0.1349,3.93466 q 0,3.3177 1.18038,4.63975 v 0 l -0.55085,0.64843 q -1.23659,-1.41647 -4.00767,-1.41647 v 0 l -6.06491,0.42809 q -2.8835,0 -4.14257,-1.41019 v 0 l -0.57895,0.61066 q 1.07358,1.17096 1.07358,3.07848 v 0 25.50919 q 0,3.19809 0.50588,9.53132 0.50588,6.33323 0.50588,8.32889 v 0 q 0,3.50657 -1.12417,3.50657 -1.12418,0 -1.12418,-2.48671 0,-2.493 0.37098,-6.74873 0.37098,-4.26202 0.37098,-6.40877 v 0 q 0,-3.35548 -1.18038,-3.35548 v 0 q -0.57895,0 -0.90496,0.77434 -0.33163,0.76805 -0.33163,1.50462 v 0 l 0.62953,6.42136 q 0,2.216 -1.12417,2.216 v 0 q -0.57333,0 -0.84875,-0.64843 -0.27542,-0.64214 -0.27542,-1.50461 0,-0.86248 0.49464,-2.81407 0.49463,-1.95159 0.49463,-3.17921 0,-1.22761 -0.94992,-1.87604 -0.94431,-0.64214 -2.38325,-0.64214 -1.44456,0 -2.99592,0.64214 -1.55136,0.64843 -2.72611,2.01454 -1.18039,1.36612 -1.18039,2.70705 0,1.33463 0.36536,3.24216 0.37098,1.90123 0.37098,3.1792 0,1.27798 -1.01176,1.27798 v 0 q -1.15227,0 -1.15227,-1.37241 0,-1.36611 0.43842,-3.4562 0.43843,-2.0901 0.43843,-3.13514 v 0 -7.98894 q 0.0562,-16.84664 0.0562,-25.23848 v 0 q 0,-1.939 1.03986,-3.07848 v 0 l -0.54523,-0.61066 q -1.20848,1.385 -4.00767,1.385 v 0 l -5.9019,-0.4029 q -2.8273,0 -4.09199,1.41647 v 0 l -0.54522,-0.64843 q 1.03986,-1.16466 1.03986,-3.0407 z m 23.6582,48.41205 v 0 q 0.65764,3.38066 0.65764,5.87366 v 0 q 0,1.07653 -0.68575,1.07653 -0.68574,0 -0.68574,-0.98839 v 0 q 0,-2.76371 0.71385,-5.9618 z"
     inkscape:connector-curvature="0"
     style="font-style:normal;font-weight:400;font-size:100px;font-family:Nosifer;letter-spacing:0;text-anchor:start;fill:#1c55ff;stroke-width:0.59486032" />
  <path
     text="```"
     font-size="100"
     letter-spacing="0"
     side="left"
     offset="0"
     dx="0"
     dy="0"
     space="preserve"
     href=""
     font-scale="contain"
     x="0"
     y="0"
     font-weight="400"
     data-fl-textpath=""
     id="_egbad6ea4_12"
     font-style="normal"
     d="m 44.580515,214.02737 v 0 l -19.616798,-2.70705 q -1.067964,-0.1259 -1.545737,-0.59806 -0.477773,-0.47216 -0.477773,-1.6683 v 0 -6.04364 q 0,-1.07023 0.477773,-1.63682 0.477773,-0.56659 1.433319,-0.44068 v 0 l 19.616806,2.70705 q 1.06796,0.12591 1.54573,0.59807 0.47778,0.47216 0.47778,1.66829 v 0 6.04364 q 0,1.07023 -0.47778,1.63682 -0.47777,0.56659 -1.43332,0.44068 z m 28.10431,0 v 0 l -19.61681,-2.70705 q -1.06796,-0.1259 -1.54573,-0.59806 -0.47778,-0.47216 -0.47778,-1.6683 v 0 -6.04364 q 0,-1.07023 0.47778,-1.63682 0.47777,-0.56659 1.43332,-0.44068 v 0 l 19.6168,2.70705 q 1.06796,0.12591 1.54574,0.59807 0.47777,0.47216 0.47777,1.66829 v 0 6.04364 q 0,1.07023 -0.47777,1.63682 -0.47778,0.56659 -1.43332,0.44068 z m 28.104295,0 v 0 l -19.616795,-2.70705 q -1.06797,-0.1259 -1.54574,-0.59806 -0.47777,-0.47216 -0.47777,-1.6683 v 0 -6.04364 q 0,-1.07023 0.47777,-1.63682 0.47777,-0.56659 1.43332,-0.44068 v 0 l 19.616795,2.70705 q 1.06797,0.12591 1.54574,0.59807 0.47777,0.47216 0.47777,1.66829 v 0 6.04364 q 0,1.07023 -0.47777,1.63682 -0.47777,0.56659 -1.43332,0.44068 z"
     inkscape:connector-curvature="0"
     style="font-style:normal;font-weight:400;font-size:100px;font-family:Bungee;letter-spacing:0;text-anchor:start;fill:#1c55ff;stroke-width:0.59486032" />
  <g
     id="_egbbl32ja_2"
     transform="matrix(3.5752196,0,0,3.3817271,-54.603267,-27.053817)"
     font-weight="400"
     font-style="normal"
     style="font-style:normal;font-weight:400;font-family:'Bungee Inline';fill:none;stroke:#1c55ff;stroke-width:4">
    <svg
       id="_egbbl32ja_3"
       version="1.1"
       x="0px"
       y="0px"
       viewBox="0 0 100 100"
       width="100"
       height="100"
       style="stroke-width:4">
      <g
         id="_egbbl32ja_4"
         transform="translate(0,-952.36218)"
         style="fill:none;stroke:#1c55ff">
        <path
           id="_egbbl32ja_5"
           d="m 24.545429,962.36218 c -4.016722,0 -7.272726,3.27271 -7.272726,7.27272 v 29.09098 14.54542 21.8182 c 0,3.9999 3.256004,7.2727 7.272726,7.2727 h 50.909128 c 4.0182,0 7.27274,-3.2728 7.27274,-7.2727 v -21.8182 -14.54542 -14.54544 L 60.909106,962.36218 Z"
           inkscape:connector-curvature="0"
           style="fill:none;stroke:#1c55ff" />
      </g>
    </svg>
  </g>
</svg>
